<svg xmlns="http://www.w3.org/2000/svg" xmlns:xlink="http://www.w3.org/1999/xlink" width="22" height="22" viewBox="0 0 22 22"><defs><clipPath id="a"><path d="M11,22A10.968,10.968,0,0,1,0,11,10.968,10.968,0,0,1,11,0,10.968,10.968,0,0,1,22,11,10.968,10.968,0,0,1,11,22Zm5-10a17.344,17.344,0,0,1-2.7,7.7A9.223,9.223,0,0,0,20,12H16ZM2.1,12a8.955,8.955,0,0,0,6.7,7.7A15.193,15.193,0,0,1,6.1,12Zm6,0a12.715,12.715,0,0,0,3,7.4A14.91,14.91,0,0,0,14,12Zm5.1-9.7A15.2,15.2,0,0,1,15.9,10h4A8.952,8.952,0,0,0,13.2,2.3ZM11,2.6h0A14.892,14.892,0,0,0,8.1,10h5.8A14.027,14.027,0,0,0,11,2.6ZM8.7,2.3A8.95,8.95,0,0,0,2.1,10h4A16.026,16.026,0,0,1,8.7,2.3Z" transform="translate(1 1)" fill="#fff"/></clipPath></defs><g transform="translate(-1 -1)"><path d="M11,22A10.968,10.968,0,0,1,0,11,10.968,10.968,0,0,1,11,0,10.968,10.968,0,0,1,22,11,10.968,10.968,0,0,1,11,22Zm5-10a17.344,17.344,0,0,1-2.7,7.7A9.223,9.223,0,0,0,20,12H16ZM2.1,12a8.955,8.955,0,0,0,6.7,7.7A15.193,15.193,0,0,1,6.1,12Zm6,0a12.715,12.715,0,0,0,3,7.4A14.91,14.91,0,0,0,14,12Zm5.1-9.7A15.2,15.2,0,0,1,15.9,10h4A8.952,8.952,0,0,0,13.2,2.3ZM11,2.6h0A14.892,14.892,0,0,0,8.1,10h5.8A14.027,14.027,0,0,0,11,2.6ZM8.7,2.3A8.95,8.95,0,0,0,2.1,10h4A16.026,16.026,0,0,1,8.7,2.3Z" transform="translate(1 1)" fill="#fff"/></g></svg>