<svg xmlns="http://www.w3.org/2000/svg" xmlns:xlink="http://www.w3.org/1999/xlink" width="22" height="18" viewBox="0 0 22 18"><defs><clipPath id="a"><path d="M19,18H3a2.934,2.934,0,0,1-3-3V3A2.934,2.934,0,0,1,3,0H19a2.934,2.934,0,0,1,3,3V15A2.934,2.934,0,0,1,19,18ZM2,4.9V15a.947.947,0,0,0,1,1H19a.947.947,0,0,0,1-1V4.9l-8.4,5.9a1.428,1.428,0,0,1-.6.2,1.428,1.428,0,0,1-.6-.2ZM3,2a.966.966,0,0,0-.9.6L11,8.8l8.9-6.2A.964.964,0,0,0,19,2Z" transform="translate(1 3)" fill="#fff"/></clipPath></defs><g transform="translate(-1 -3)"><path d="M19,18H3a2.934,2.934,0,0,1-3-3V3A2.934,2.934,0,0,1,3,0H19a2.934,2.934,0,0,1,3,3V15A2.934,2.934,0,0,1,19,18ZM2,4.9V15a.947.947,0,0,0,1,1H19a.947.947,0,0,0,1-1V4.9l-8.4,5.9a1.428,1.428,0,0,1-.6.2,1.428,1.428,0,0,1-.6-.2ZM3,2a.966.966,0,0,0-.9.6L11,8.8l8.9-6.2A.964.964,0,0,0,19,2Z" transform="translate(1 3)" fill="#fff"/></g></svg>