<svg xmlns="http://www.w3.org/2000/svg" width="22" height="22" viewBox="0 0 22 22"><path d="M19.388,12.959a11.007,11.007,0,0,1-2.612-.6,3.186,3.186,0,0,0-3.215.7l-.7.7A15.588,15.588,0,0,1,8.237,9.142l.7-.7a3.139,3.139,0,0,0,.7-3.215,11.007,11.007,0,0,1-.6-2.612A3.033,3.033,0,0,0,6.027,0H2.712A3.1,3.1,0,0,0,.7,1.105,3.424,3.424,0,0,0,0,3.315a21.014,21.014,0,0,0,9.543,15.47A20.007,20.007,0,0,0,18.685,22h.3a2.736,2.736,0,0,0,2.11-.9,3.348,3.348,0,0,0,.9-2.11V15.973A3.033,3.033,0,0,0,19.388,12.959Z" fill="#fff"/></svg>